<?xml version="1.0" standalone="no"?>
<!DOCTYPE svg PUBLIC "-//W3C//DTD SVG 20010904//EN"
 "http://www.w3.org/TR/2001/REC-SVG-20010904/DTD/svg10.dtd">
<svg version="1.0" xmlns="http://www.w3.org/2000/svg"
 width="234.000000pt" height="203.000000pt" viewBox="0 0 234.000000 203.000000"
 preserveAspectRatio="xMidYMid meet">

<g transform="translate(0.000000,203.000000) scale(0.100000,-0.100000)"
fill="#0a5ad5" stroke="none">
<path d="M174 1980 c-51 -25 -88 -65 -103 -109 -8 -24 -11 -271 -11 -864 0
-829 0 -831 21 -875 15 -29 37 -54 68 -73 l45 -29 991 2 990 3 30 23 c16 13
41 39 55 59 l25 36 3 836 c2 575 0 848 -8 873 -14 50 -56 97 -105 119 -38 18
-90 19 -1000 19 -944 0 -961 0 -1001 -20z m1310 -311 c19 -23 45 -62 57 -88
23 -49 60 -151 55 -151 -2 0 -20 7 -39 15 -101 42 -231 3 -594 -181 -90 -45
-163 -79 -163 -75 0 4 47 58 104 121 240 267 408 400 503 400 36 0 46 -5 77
-41z m116 -341 c18 -13 46 -39 62 -59 28 -35 101 -189 93 -197 -2 -2 -25 6
-51 19 -103 49 -204 34 -519 -77 -139 -48 -549 -208 -644 -251 -89 -40 351
273 579 411 264 161 404 206 480 154z m129 -377 c47 -25 83 -72 126 -164 31
-69 65 -192 65 -238 0 -20 -2 -19 -37 11 -20 18 -62 45 -93 59 -49 23 -66 26
-170 26 -196 -1 -557 -85 -1123 -262 -98 -30 -180 -53 -183 -50 -3 2 10 13 28
24 18 11 96 58 173 105 292 177 643 361 830 435 183 72 312 90 384 54z"/>
</g>
</svg>
